<svg height="512" viewBox="0 0 64 64" width="512" xmlns="http://www.w3.org/2000/svg"><g id="mobile-screen-shop-store-cart"><path d="m11 53h36a0 0 0 0 1 0 0v6a2 2 0 0 1 -2 2h-32a2 2 0 0 1 -2-2v-6a0 0 0 0 1 0 0z" fill="#e9e9ea"/><path d="m11 11h36v42h-36z" fill="#57a4ff"/><path d="m26 7v6a3 3 0 0 1 -6 0v-6z" fill="#ff5023"/><path d="m20 7v6a3 3 0 0 1 -6 0v-6z" fill="#ffda44"/><path d="m32 7v6a3 3 0 0 1 -6 0v-6z" fill="#ffda44"/><g fill="#ff5023"><path d="m14 7v6a3 3 0 0 1 -6 0l3-6z"/><path d="m38 7v6a3 3 0 0 1 -6 0v-6z"/><path d="m47 16a3 3 0 0 1 -3-3v-6h3l3 6a3 3 0 0 1 -3 3z"/></g><path d="m44 7v6a3 3 0 0 1 -6 0v-6z" fill="#ffda44"/><path d="m47 5v2h-36v-2a2.006 2.006 0 0 1 2-2h32a2.006 2.006 0 0 1 2 2z" fill="#e9e9ea"/><circle cx="34" cy="38" fill="#ff9811" r="2"/><path d="m52 42a2.006 2.006 0 0 1 2-2 2.015 2.015 0 0 1 2 2v12l-3 4v4h-13v-5l-3-4v-8l3-3v-8a2.006 2.006 0 0 1 2-2 2.015 2.015 0 0 1 2 2v7a2 2 0 0 1 3-1.73 1.813 1.813 0 0 1 .41.32 1.955 1.955 0 0 1 .59 1.41 2.006 2.006 0 0 1 2-2 2.015 2.015 0 0 1 2 2z" fill="#f5e0cd"/><circle cx="24" cy="38" fill="#ff9811" r="2"/><path d="m37 25-1 8h-13v-7.92-.08z" fill="#ff9811"/><path d="m54 39a2.942 2.942 0 0 0 -1.47.4 2.973 2.973 0 0 0 -4.53-.62v-21.92a4 4 0 0 0 3-3.86 1 1 0 0 0 -.11-.45l-2.89-5.79v-1.76a3.009 3.009 0 0 0 -3-3h-32a3.009 3.009 0 0 0 -3 3v1.76l-2.89 5.79a1 1 0 0 0 -.11.45 4 4 0 0 0 3 3.86v42.14a3.009 3.009 0 0 0 3 3h28v-5a.984.984 0 0 0 -.2-.6l-2.8-3.73v-7.26l1-1v3.59h2v-14a1 1 0 0 1 2 0v14h2v-7a1 1 0 0 1 2 0v7h2v-7a1 1 0 0 1 2 0v7h2v-6a1 1 0 0 1 2 0v11.67l-2.8 3.73a.984.984 0 0 0 -.2.6v4h2v-3.67l2.8-3.73a.984.984 0 0 0 .2-.6v-12a3.009 3.009 0 0 0 -3-3zm-42-34a1 1 0 0 1 1-1h32a1 1 0 0 1 1 1v1h-34zm31 3v5a2 2 0 0 1 -4 0v-5zm-6 0v5a2 2 0 0 1 -4 0v-5zm-6 0v5a2 2 0 0 1 -4 0v-5zm-6 0v5a2 2 0 0 1 -4 0v-5zm-6 0v5a2 2 0 0 1 -4 0v-5zm-9.99 5.21 2.61-5.21h1.38v5a2 2 0 0 1 -3.99.21zm29.99 44.12v2.67h-26a1 1 0 0 1 -1-1v-5h24.5zm7-19.33a3 3 0 0 0 -1 .18v-4.18a3 3 0 0 0 -6 0v7.59l-2.71 2.7a1.033 1.033 0 0 0 -.29.71v7h-24v-35.14a4.054 4.054 0 0 0 2-1.24 3.951 3.951 0 0 0 6 0 3.951 3.951 0 0 0 6 0 3.951 3.951 0 0 0 6 0 3.951 3.951 0 0 0 6 0 3.951 3.951 0 0 0 6 0 4.054 4.054 0 0 0 2 1.24zm-1-25v-5h1.38l2.61 5.21a2 2 0 0 1 -3.99-.21z"/><rect height="2" rx="1" width="4" x="27" y="56"/><path d="m34 35h-10a3 3 0 1 0 3 3 2.966 2.966 0 0 0 -.184-1h4.368a2.966 2.966 0 0 0 -.184 1 3 3 0 1 0 3-3zm-9 3a1 1 0 1 1 -1-1 1 1 0 0 1 1 1zm9 1a1 1 0 1 1 1-1 1 1 0 0 1 -1 1z"/><path d="m37.75 24.34a.981.981 0 0 0 -.75-.34h-13v-3a1 1 0 0 0 -1-1h-4v2h3v11a1 1 0 0 0 1 1h13a1 1 0 0 0 .99-.88l1-8a.968.968 0 0 0 -.24-.78zm-2.63 7.66h-11.12v-6h11.87z"/></g></svg>