<svg id="icons" enable-background="new 0 0 64 64" height="512" viewBox="0 0 64 64" width="512" xmlns="http://www.w3.org/2000/svg"><path d="m62.995 7.505h-61.99v52.99h62v-52.99z" fill="#fff"/><path d="m5.024 11.515h54v25.99h-54z" fill="#5c9eff"/><path d="m62.995 7.505h-61.99-.01v-2c0-1.11.899-2 2-2h58c1.109 0 2 .89 2 2z" fill="#d7e9ff"/><path d="m23.005 28.505v.01l-.01 2.99h-6.99v-2.99-.01z" fill="#94c1ff"/><path d="m29.005 17.505v11h-6-7-6v-11z" fill="#d7e9ff"/><path d="m56.005 43.505v4.99c0 .55-.45 1-1 1h-6.97c-.55 0-1-.45-1-1v-4.99c0-.55.45-1 1-1h6.97c.55 0 1 .45 1 1z" fill="#d7e9ff"/><path d="m35.015 42.505v6c0 .55-.45 1-1 1h-3.979c-.55 0-1-.45-1-1v-6c0-.55.45-1 1-1h3.979c.549 0 1 .45 1 1z" fill="#d7e9ff"/><path d="m17.005 43.505v4.99c0 .55-.45 1-1 1h-6.97c-.55 0-1-.45-1-1v-4.99c0-.55.45-1 1-1h6.97c.55 0 1 .45 1 1z" fill="#d7e9ff"/><g fill="#116fff"><path d="m4.026 6.503c-.553 0-1.005-.447-1.005-1s.442-1 .994-1h.011c.552 0 1 .447 1 1s-.448 1-1 1z"/><path d="m7.026 6.503c-.553 0-1.005-.447-1.005-1s.442-1 .994-1h.011c.552 0 1 .447 1 1s-.448 1-1 1z"/><path d="m10.026 6.503c-.553 0-1.005-.447-1.005-1s.442-1 .994-1h.011c.552 0 1 .447 1 1s-.448 1-1 1z"/><path d="m63.004 61.497h-62c-.553 0-1-.447-1-1v-52.994c0-.553.447-1 1-1h62c.553 0 1 .447 1 1v52.994c0 .553-.447 1-1 1zm-61-2h60v-50.994h-60v50.994z"/><path d="m.996 6.503c-.553 0-1-.447-1-1 0-1.654 1.346-3 3-3 .553 0 1 .447 1 1s-.447 1-1 1c-.552 0-1 .448-1 1 0 .553-.447 1-1 1z"/><path d="m.996 8.503c-.553 0-1-.447-1-1v-2c0-.553.447-1 1-1s1 .447 1 1v2c0 .553-.447 1-1 1z"/><path d="m62.996 6.503c-.553 0-1-.447-1-1 0-.552-.448-1-1-1-.553 0-1-.447-1-1s.447-1 1-1c1.654 0 3 1.346 3 3 0 .553-.447 1-1 1z"/><path d="m62.996 8.503c-.553 0-1-.447-1-1v-2c0-.553.447-1 1-1s1 .447 1 1v2c0 .553-.447 1-1 1z"/><path d="m60.996 4.503h-58c-.553 0-1-.447-1-1s.447-1 1-1h58c.553 0 1 .447 1 1s-.447 1-1 1z"/><path d="m19.016 54.515h-12.995c-.553 0-1-.447-1-1s.447-1 1-1h12.994c.553 0 1 .447 1 1s-.447 1-.999 1z"/><path d="m58.014 54.515h-12.994c-.553 0-1-.447-1-1s.447-1 1-1h12.994c.553 0 1 .447 1 1s-.448 1-1 1z"/><path d="m38.502 54.515h-12.994c-.553 0-1-.447-1-1s.447-1 1-1h12.994c.553 0 1 .447 1 1s-.447 1-1 1z"/><path d="m35.52 57.515h-7.031c-.553 0-1-.447-1-1s.447-1 1-1h7.031c.553 0 1 .447 1 1s-.448 1-1 1z"/><path d="m55.02 57.515h-7.006c-.553 0-1-.447-1-1s.447-1 1-1h7.006c.553 0 1 .447 1 1s-.448 1-1 1z"/><path d="m16.02 57.515h-6.999c-.553 0-1-.447-1-1s.447-1 1-1h6.998c.553 0 1 .447 1 1s-.447 1-.999 1z"/><path d="m59.02 38.506h-54c-.553 0-1-.447-1-1v-25.987c0-.553.447-1 1-1h54c.553 0 1 .447 1 1v25.987c0 .553-.448 1-1 1zm-53-2h52v-23.987h-52z"/><path d="m54.008 19.506h-19.998c-.553 0-1-.447-1-1s.447-1 1-1h19.998c.553 0 1 .447 1 1s-.447 1-1 1z"/><path d="m54.008 22.514h-19.998c-.553 0-1-.447-1-1s.447-1 1-1h19.998c.553 0 1 .447 1 1s-.447 1-1 1z"/><path d="m44.008 25.521h-9.998c-.553 0-1-.447-1-1s.447-1 1-1h9.998c.553 0 1 .447 1 1s-.447 1-1 1z"/><path d="m40.004 30.514h-5.992c-.553 0-1-.447-1-1s.447-1 1-1h5.992c.553 0 1 .447 1 1s-.447 1-1 1z"/><path d="m43.998 29.514h-1.004c-.553 0-1-.447-1-1s.447-1 1-1h1.004c.553 0 1 .447 1 1s-.447 1-1 1z"/><path d="m43.999 31.514c-.366 0-.719-.202-.895-.552l-1.004-2c-.248-.493-.049-1.094.445-1.342.495-.247 1.094-.048 1.342.445l1.004 2c.248.493.049 1.094-.445 1.342-.143.072-.297.107-.447.107z"/><path d="m43.998 31.514h-1c-.553 0-1-.447-1-1s.447-1 1-1h1c.553 0 1 .447 1 1s-.447 1-1 1z"/><path d="m29.004 29.503h-18.998c-.553 0-1-.447-1-1v-10.998c0-.553.447-1 1-1h18.998c.553 0 1 .447 1 1v10.998c0 .553-.447 1-1 1zm-17.998-2h16.998v-8.998h-16.998z"/><path d="m16.006 32.502c-.553 0-1-.447-1-1v-2.989c0-.553.447-1 1-1s1 .447 1 1v2.989c0 .553-.447 1-1 1z"/><path d="m22.994 32.502c-.001 0-.002 0-.003 0-.552-.001-.998-.45-.997-1.003l.008-2.989c.001-.551.449-.997 1-.997h.003c.552.001.998.45.997 1.003l-.008 2.989c-.001.551-.449.997-1 .997z"/><path d="m25.994 32.502h-12.986c-.553 0-1-.447-1-1s.447-1 1-1h12.986c.553 0 1 .447 1 1s-.447 1-1 1z"/><path d="m16.004 50.495h-6.973c-1.103 0-2-.897-2-2v-4.991c0-1.103.897-2 2-2h6.973c1.103 0 2 .897 2 2v4.991c0 1.103-.898 2-2 2zm0-2v1zm-6.973-4.991v4.991h6.97l.003-4.991z"/><path d="m15.034 47c-.553 0-1.005-.447-1.005-1s.442-1 .994-1h.011c.552 0 1 .447 1 1s-.448 1-1 1z"/><path d="m55.004 50.495h-6.973c-1.103 0-2-.897-2-2v-4.991c0-1.103.897-2 2-2h6.973c1.103 0 2 .897 2 2v4.991c0 1.103-.898 2-2 2zm0-2v1zm-6.973-4.991v4.991h6.969l.004-4.991z"/><path d="m54.034 47c-.553 0-1.005-.447-1.005-1s.442-1 .994-1h.011c.552 0 1 .447 1 1s-.448 1-1 1z"/><path d="m34.01 50.503h-3.982c-1.103 0-2-.897-2-2v-6c0-1.103.897-2 2-2h3.982c1.103 0 2 .897 2 2v6c0 1.102-.898 2-2 2zm0-2v1zm-3.983-6v6h3.979l.003-6z"/><path d="m32.05 48.503c-.553 0-1.005-.447-1.005-1s.442-1 .994-1h.011c.552 0 1 .447 1 1s-.448 1-1 1z"/></g></svg>