<svg xmlns="http://www.w3.org/2000/svg" viewBox="0 0 1073.37 1333.33" shape-rendering="geometricPrecision" text-rendering="geometricPrecision" image-rendering="optimizeQuality" fill-rule="evenodd" clip-rule="evenodd"><path d="M854.73.02C819.03 427.14 330.26 146.47 144.6 502.2c-26.3 57.91-43.77 111.63-52.13 161.04a413.358 413.358 0 00-37.4 54.3c-56.67 98.16-68.19 210.01-41 311.48 27.19 101.47 93.09 192.57 191.25 249.25 98.16 56.67 210.01 68.19 311.48 41 101.47-27.19 192.58-93.09 249.25-191.25 25.05-43.39 41.27-89.46 49.23-136.11 57.71-33.64 108.72-81.13 147.8-144.12 65.95-153.19-54.39-275.41 110.3-383.26-101.77-51.18-163.89 1.79-223.34 105.22-64.35 139.72-305.34-25.73-79.39-111.62C964.81 384.34 947.12 156.8 854.76 0l-.02.02zM401.69 921.35c1.24 0 2.46.05 3.67.13L546.75 815.6c16.41-12.31 39.69-8.98 51.99 7.43 12.31 16.41 8.98 39.69-7.43 51.99L451.42 979.78c-3.86 24-24.66 42.34-49.74 42.34-27.82 0-50.38-22.56-50.38-50.38 0-5.32.82-10.45 2.35-15.26L209.71 845.19c-9.1-7.02-10.78-20.1-3.75-29.2 7.02-9.1 20.1-10.78 29.2-3.75L381.65 925.5a50.258 50.258 0 0120.03-4.14zM585.53 619.7c174.23 100.6 228.69 303.82 128.09 478.05-100.59 174.23-303.81 228.68-478.04 128.09C61.35 1125.24 6.89 922.03 107.49 747.8 208.08 573.56 411.3 519.11 585.53 619.7z"/></svg>