<svg xmlns="http://www.w3.org/2000/svg" width="64" height="64" viewBox="0 0 640 640" shape-rendering="geometricPrecision" text-rendering="geometricPrecision" image-rendering="optimizeQuality" fill-rule="evenodd" clip-rule="evenodd"><path d="M262.361 465.195l145.195-145.183-145.195-145.207v290.389zM-.012 96.568V543.502h.154c.035 26.588 10.89 50.742 28.358 68.199 17.339 17.315 41.375 28.098 67.914 28.157v.154H543.502v-.154c26.588-.035 50.753-10.89 68.198-28.358 17.316-17.339 28.1-41.375 28.158-67.914h.154V96.498h-.154c-.035-26.611-10.901-50.765-28.358-68.199C594.16 10.984 570.125.201 543.585.142v-.154H96.497v.154C69.887.177 45.744 11.032 28.299 28.5 10.984 45.84.201 69.875.142 96.414h-.154v.154zm73.23 446.864V96.414h-.154c.011-6.271 2.716-12.118 7.015-16.429 4.24-4.252 10.087-6.921 16.418-6.921v.153h447.088v-.153c6.284.012 12.13 2.716 16.43 7.016 4.252 4.24 6.921 10.086 6.921 16.417h-.154v447.089h.154c-.012 6.283-2.717 12.118-7.016 16.429-4.24 4.252-10.086 6.921-16.417 6.921v-.153H96.414v.153c-6.271-.012-12.118-2.716-16.429-7.016-4.252-4.24-6.921-10.086-6.921-16.417h.153v-.071z"/></svg>