<svg xmlns="http://www.w3.org/2000/svg" viewBox="0 0 1333.34 738.31" shape-rendering="geometricPrecision" text-rendering="geometricPrecision" image-rendering="optimizeQuality" fill-rule="evenodd" clip-rule="evenodd"><path d="M22.05 613.29c-28.83 28.04-29.47 74.15-1.43 102.98s74.15 29.47 102.98 1.43l300.01-292.74 250.88 242.05c28.99 27.88 75.09 26.99 102.98-2l409.82-414.7v209.13c0 40.33 32.7 73.03 73.03 73.03s73.03-32.7 73.03-73.03V72.82h-.21c0-18.83-7.26-37.66-21.76-51.92-15.35-15.09-35.7-22-55.62-20.75H894.11c-40.33 0-73.03 32.7-73.03 73.03s32.7 73.03 73.03 73.03h191.31L723.78 512.16 473.82 271.01c-28.18-27.13-73.02-27.19-101.26.28L22.06 613.3z" fill-rule="nonzero"/></svg>