<svg id="Capa_1" enable-background="new 0 0 512 512" height="512" viewBox="0 0 512 512" width="512" xmlns="http://www.w3.org/2000/svg"><g><path d="m335.798 335.798h33.734v33.734h-33.734z"/><path d="m78.734 271h33.734v34.798h-33.734z"/><path d="m78.734 433.266h97.468v-97.468h-97.468zm33.734-63.735h30v30h-30z"/><path d="m0 0v512h512v-512zm206.202 463.266h-157.468v-222.266h143.531v30h-49.797v34.798h63.733v157.468zm64.798 0h-30v-30h30zm-45.934-192.266v-30h30v30zm45.934 128.531h-30v-30h30zm0-63.733h-30v-30h30zm0-127.599h-30v-58.069h30zm0-109.056h-30v-20.409h-34.798v127.468h-157.468v-157.468h222.266zm17.801 141.857h30v30h-30zm110.731 64.798v93.734h-93.734v-93.734zm.933 157.468h-96.664v-30h96.664zm62.801 0h-30v-30h30zm0-79.667h-30v-30h30zm0-62.801h-30v-49.798h-81.664v-30h111.664zm0-114.596h-157.468v-157.468h157.468z"/><path d="m78.734 176.202h97.468v-97.468h-97.468zm33.734-63.734h30v30h-30z"/><path d="m433.266 78.734h-97.468v97.468h97.468zm-33.735 63.734h-30v-30h30z"/></g></svg>