<svg id="Capa_1" enable-background="new 0 0 512.025 512.025" height="512" viewBox="0 0 512.025 512.025" width="512" xmlns="http://www.w3.org/2000/svg"><g><path d="m446.868 383.229-21.213-21.213-21.213 21.213-21.752-21.752c20.864-25.016 34.469-56.277 37.571-90.527h30.689v30h30v-90h-30v30h-30.69c-3.102-34.25-16.707-65.512-37.571-90.527l21.752-21.752 21.213 21.213 21.213-21.213-63.639-63.639-21.213 21.213 21.213 21.213-21.752 21.752c-25.015-20.863-56.277-34.469-90.527-37.571v-30.69h30v-30h-90v30h30v30.689c-34.25 3.102-65.512 16.708-90.527 37.571l-21.752-21.752 21.213-21.213-21.213-21.213-21.213 21.213-86.244-86.244-21.213 21.213 86.244 86.244-21.213 21.213 21.213 21.213 21.213-21.213 21.752 21.752c-20.864 25.016-34.469 56.277-37.571 90.527h-30.689v-30h-30v90h30v-30h30.689c3.102 34.25 16.707 65.512 37.571 90.527l-21.752 21.752-21.213-21.213-21.213 21.213 63.639 63.639 21.213-21.213-21.213-21.213 21.752-21.752c25.015 20.863 56.277 34.469 90.527 37.571v30.689h-30v30h90v-30h-30v-30.689c34.25-3.102 65.512-16.708 90.527-37.571l21.752 21.752-21.213 21.213 21.213 21.213 21.213-21.213 86.37 86.371 21.213-21.213-86.37-86.371zm-190.919 7.72c-74.439 0-135-60.561-135-135 0-31.827 11.078-61.112 29.571-84.216l189.645 189.646c-23.104 18.493-52.388 29.57-84.216 29.57zm105.429-50.783-189.645-189.646c23.104-18.493 52.389-29.571 84.216-29.571 74.439 0 135 60.561 135 135 0 31.827-11.078 61.112-29.571 84.217z"/><path d="m240.949 330.949h30v30h-30z"/><path d="m150.949 240.949h30v30h-30z"/><path d="m300.949 180.949h30v30h-30z"/></g></svg>